<mxfile host="app.diagrams.net" agent="Mozilla/5.0 (Windows NT 10.0; Win64; x64) AppleWebKit/537.36 (KHTML, like Gecko) Chrome/127.0.0.0 Safari/537.36 OPR/113.0.0.0" version="24.7.17">
  <diagram name="PÃ¡gina-1" id="Y_G43ye4FsQ3mnHmZ2zf">
    <mxGraphModel dx="1393" dy="801" grid="1" gridSize="10" guides="1" tooltips="1" connect="1" arrows="1" fold="1" page="1" pageScale="1" pageWidth="827" pageHeight="1169" math="0" shadow="0">
      <root>
        <mxCell id="0" />
        <mxCell id="1" parent="0" />
        <mxCell id="bgOHWUZEyocaoN3yzQ3y-2" value="" style="rounded=0;whiteSpace=wrap;html=1;" vertex="1" parent="1">
          <mxGeometry x="260" y="150" width="244" height="470" as="geometry" />
        </mxCell>
        <mxCell id="bgOHWUZEyocaoN3yzQ3y-3" value="" style="ellipse;whiteSpace=wrap;html=1;" vertex="1" parent="1">
          <mxGeometry x="310" y="190" width="160" height="100" as="geometry" />
        </mxCell>
        <mxCell id="bgOHWUZEyocaoN3yzQ3y-4" value="Start Game" style="text;html=1;align=center;verticalAlign=middle;whiteSpace=wrap;rounded=0;" vertex="1" parent="1">
          <mxGeometry x="338" y="210" width="88" height="55" as="geometry" />
        </mxCell>
        <mxCell id="bgOHWUZEyocaoN3yzQ3y-5" value="Client" style="shape=umlActor;verticalLabelPosition=bottom;verticalAlign=top;html=1;outlineConnect=0;" vertex="1" parent="1">
          <mxGeometry x="640" y="200" width="90" height="130" as="geometry" />
        </mxCell>
        <mxCell id="bgOHWUZEyocaoN3yzQ3y-7" value="Systen" style="shape=umlActor;verticalLabelPosition=bottom;verticalAlign=top;html=1;outlineConnect=0;" vertex="1" parent="1">
          <mxGeometry x="50" y="190" width="70" height="100" as="geometry" />
        </mxCell>
        <mxCell id="bgOHWUZEyocaoN3yzQ3y-9" value="" style="endArrow=none;html=1;rounded=0;" edge="1" parent="1" source="bgOHWUZEyocaoN3yzQ3y-5" target="bgOHWUZEyocaoN3yzQ3y-3">
          <mxGeometry width="50" height="50" relative="1" as="geometry">
            <mxPoint x="540" y="300" as="sourcePoint" />
            <mxPoint x="590" y="250" as="targetPoint" />
          </mxGeometry>
        </mxCell>
        <mxCell id="bgOHWUZEyocaoN3yzQ3y-10" value="" style="endArrow=none;html=1;rounded=0;entryX=0;entryY=0.5;entryDx=0;entryDy=0;" edge="1" parent="1" target="bgOHWUZEyocaoN3yzQ3y-3">
          <mxGeometry width="50" height="50" relative="1" as="geometry">
            <mxPoint x="110" y="240" as="sourcePoint" />
            <mxPoint x="240" y="220" as="targetPoint" />
          </mxGeometry>
        </mxCell>
        <mxCell id="bgOHWUZEyocaoN3yzQ3y-11" value="" style="ellipse;whiteSpace=wrap;html=1;" vertex="1" parent="1">
          <mxGeometry x="320" y="320" width="160" height="100" as="geometry" />
        </mxCell>
        <mxCell id="bgOHWUZEyocaoN3yzQ3y-12" value="Count" style="text;html=1;align=center;verticalAlign=middle;whiteSpace=wrap;rounded=0;" vertex="1" parent="1">
          <mxGeometry x="366" y="360" width="60" height="30" as="geometry" />
        </mxCell>
        <mxCell id="bgOHWUZEyocaoN3yzQ3y-13" value="" style="endArrow=none;html=1;rounded=0;" edge="1" parent="1" source="bgOHWUZEyocaoN3yzQ3y-7" target="bgOHWUZEyocaoN3yzQ3y-11">
          <mxGeometry width="50" height="50" relative="1" as="geometry">
            <mxPoint x="170" y="330" as="sourcePoint" />
            <mxPoint x="220" y="280" as="targetPoint" />
          </mxGeometry>
        </mxCell>
        <mxCell id="bgOHWUZEyocaoN3yzQ3y-14" value="" style="ellipse;whiteSpace=wrap;html=1;" vertex="1" parent="1">
          <mxGeometry x="300" y="470" width="160" height="110" as="geometry" />
        </mxCell>
        <mxCell id="bgOHWUZEyocaoN3yzQ3y-16" value="Match Time" style="text;html=1;align=center;verticalAlign=middle;whiteSpace=wrap;rounded=0;" vertex="1" parent="1">
          <mxGeometry x="354" y="510" width="60" height="30" as="geometry" />
        </mxCell>
        <mxCell id="bgOHWUZEyocaoN3yzQ3y-17" value="" style="endArrow=none;html=1;rounded=0;" edge="1" parent="1" target="bgOHWUZEyocaoN3yzQ3y-14">
          <mxGeometry width="50" height="50" relative="1" as="geometry">
            <mxPoint x="130" y="310" as="sourcePoint" />
            <mxPoint x="160" y="310" as="targetPoint" />
          </mxGeometry>
        </mxCell>
        <mxCell id="bgOHWUZEyocaoN3yzQ3y-18" value="" style="endArrow=none;html=1;rounded=0;" edge="1" parent="1" source="bgOHWUZEyocaoN3yzQ3y-14" target="bgOHWUZEyocaoN3yzQ3y-5">
          <mxGeometry width="50" height="50" relative="1" as="geometry">
            <mxPoint x="504" y="435" as="sourcePoint" />
            <mxPoint x="574.7106781186548" y="385" as="targetPoint" />
          </mxGeometry>
        </mxCell>
        <mxCell id="bgOHWUZEyocaoN3yzQ3y-20" value="Count systen" style="text;html=1;align=center;verticalAlign=middle;whiteSpace=wrap;rounded=0;" vertex="1" parent="1">
          <mxGeometry x="260" y="160" width="60" height="30" as="geometry" />
        </mxCell>
      </root>
    </mxGraphModel>
  </diagram>
</mxfile>
